<?xml version="1.0" encoding="utf-8"?>
<!DOCTYPE svg PUBLIC "-//W3C//DTD SVG 1.1//EN" "http://www.w3.org/Graphics/SVG/1.1/DTD/svg11.dtd">
<svg xmlns="http://www.w3.org/2000/svg" xmlns:xlink="http://www.w3.org/1999/xlink" version="1.1" baseProfile="full" width="85.3333" height="85.3333" viewBox="0 0 85.33 85.33" enable-background="new 0 0 85.33 85.33" xml:space="preserve">
	<g>
		<path fill="#ffffff" fill-opacity="1" stroke-width="1.33333" stroke-linejoin="round" d="M 74.7567,38.2767C 76.0167,38.2767 77.0933,38.7233 77.9867,39.6167C 78.88,40.51 79.3267,41.5883 79.3267,42.8517C 79.3267,44.115 78.88,45.1917 77.9867,46.0817C 77.0933,46.9717 76.0167,47.4167 74.7567,47.4167L 74.2267,47.4167L 70.1167,71.0667C 69.9233,72.16 69.3983,73.0633 68.5417,73.7767C 67.685,74.49 66.71,74.8467 65.6167,74.8467L 19.8967,74.8467C 18.8033,74.8467 17.8283,74.49 16.9717,73.7767C 16.115,73.0633 15.59,72.16 15.3967,71.0667L 11.2967,47.4167L 10.7567,47.4167C 9.49667,47.4167 8.42,46.9717 7.52667,46.0817C 6.63333,45.1917 6.18667,44.115 6.18667,42.8517C 6.18667,41.5883 6.63333,40.51 7.52667,39.6167C 8.42,38.7233 9.49667,38.2767 10.7567,38.2767L 74.7567,38.2767 Z M 23.5067,66.8467C 24.1267,66.8 24.645,66.5333 25.0617,66.0467C 25.4783,65.56 25.6633,65.0067 25.6167,64.3867L 24.4767,49.5267C 24.4233,48.9067 24.1533,48.3883 23.6667,47.9717C 23.18,47.555 22.6267,47.3717 22.0067,47.4217C 21.3867,47.4717 20.8683,47.74 20.4517,48.2267C 20.035,48.7133 19.85,49.2667 19.8967,49.8867L 21.0467,64.7467C 21.0933,65.34 21.3367,65.8383 21.7767,66.2417C 22.2167,66.645 22.7333,66.8467 23.3267,66.8467L 23.5067,66.8467 Z M 38.1867,64.5667L 38.1867,49.7067C 38.1867,49.0867 37.96,48.55 37.5067,48.0967C 37.0533,47.6433 36.5183,47.4167 35.9017,47.4167C 35.285,47.4167 34.75,47.6433 34.2967,48.0967C 33.8433,48.55 33.6167,49.0867 33.6167,49.7067L 33.6167,64.5667C 33.6167,65.1867 33.8433,65.7217 34.2967,66.1717C 34.75,66.6217 35.285,66.8467 35.9017,66.8467C 36.5183,66.8467 37.0533,66.6217 37.5067,66.1717C 37.96,65.7217 38.1867,65.1867 38.1867,64.5667 Z M 51.8967,64.5667L 51.8967,49.7067C 51.8967,49.0867 51.6717,48.55 51.2217,48.0967C 50.7717,47.6433 50.2367,47.4167 49.6167,47.4167C 48.9967,47.4167 48.46,47.6433 48.0067,48.0967C 47.5533,48.55 47.3267,49.0867 47.3267,49.7067L 47.3267,64.5667C 47.3267,65.1867 47.5533,65.7217 48.0067,66.1717C 48.46,66.6217 48.9967,66.8467 49.6167,66.8467C 50.2367,66.8467 50.7717,66.6217 51.2217,66.1717C 51.6717,65.7217 51.8967,65.1867 51.8967,64.5667 Z M 64.4767,64.7467L 65.6167,49.8867C 65.6633,49.2667 65.4783,48.7133 65.0617,48.2267C 64.645,47.74 64.1267,47.4717 63.5067,47.4217C 62.8867,47.3717 62.3333,47.555 61.8467,47.9717C 61.36,48.3883 61.0933,48.9067 61.0467,49.5267L 59.8967,64.3867C 59.85,65.0067 60.035,65.56 60.4517,66.0467C 60.8683,66.5333 61.3867,66.8 62.0067,66.8467L 62.1867,66.8467C 62.78,66.8467 63.2967,66.645 63.7367,66.2417C 64.1767,65.8383 64.4233,65.34 64.4767,64.7467 Z M 23.1867,21.2767L 19.8667,35.9967L 15.1467,35.9967L 18.7567,20.2467C 19.21,18.1467 20.27,16.4367 21.9367,15.1167C 23.6033,13.7967 25.5067,13.1367 27.6467,13.1367L 33.6167,13.1367C 33.6167,12.5167 33.8433,11.98 34.2967,11.5267C 34.75,11.0733 35.2833,10.8467 35.8967,10.8467L 49.6167,10.8467C 50.2367,10.8467 50.7717,11.0733 51.2217,11.5267C 51.6717,11.98 51.8967,12.5167 51.8967,13.1367L 57.8667,13.1367C 60.0067,13.1367 61.91,13.7967 63.5767,15.1167C 65.2433,16.4367 66.3033,18.1467 66.7567,20.2467L 70.3667,35.9967L 65.6467,35.9967L 62.3267,21.2767C 62.0667,20.23 61.5267,19.3733 60.7067,18.7067C 59.8867,18.04 58.94,17.7067 57.8667,17.7067L 51.8967,17.7067C 51.8967,18.3267 51.6717,18.8633 51.2217,19.3167C 50.7717,19.77 50.2367,19.9967 49.6167,19.9967L 35.8967,19.9967C 35.2833,19.9967 34.75,19.77 34.2967,19.3167C 33.8433,18.8633 33.6167,18.3267 33.6167,17.7067L 27.6467,17.7067C 26.58,17.7067 25.635,18.04 24.8117,18.7067C 23.9883,19.3733 23.4467,20.23 23.1867,21.2767 Z "/>
	</g>
</svg>
